<mxfile host="app.diagrams.net" modified="2022-08-15T07:40:14.414Z" agent="5.0 (Windows NT 10.0; Win64; x64) AppleWebKit/537.36 (KHTML, like Gecko) Chrome/104.0.5112.81 Safari/537.36 Edg/104.0.1293.54" etag="h63oKyQG3ecSv5xzebUy" version="20.1.4" type="github">
  <diagram id="Jw3EdMG5oFBLl5G7wRar" name="第 1 页">
    <mxGraphModel dx="1185" dy="635" grid="1" gridSize="10" guides="1" tooltips="1" connect="1" arrows="1" fold="1" page="1" pageScale="1" pageWidth="1200" pageHeight="1920" math="0" shadow="0">
      <root>
        <mxCell id="0" />
        <mxCell id="1" parent="0" />
        <mxCell id="pEkOY42yFZqLWtjxREkR-3" value="" style="edgeStyle=orthogonalEdgeStyle;rounded=0;orthogonalLoop=1;jettySize=auto;html=1;" edge="1" parent="1" source="pEkOY42yFZqLWtjxREkR-1" target="pEkOY42yFZqLWtjxREkR-2">
          <mxGeometry relative="1" as="geometry" />
        </mxCell>
        <mxCell id="pEkOY42yFZqLWtjxREkR-1" value="ubteacher modeling roi_heads.py 118行&lt;br&gt;box_features = self.box_pooler(features, [x.proposal_boxes for x in proposals])" style="rounded=0;whiteSpace=wrap;html=1;" vertex="1" parent="1">
          <mxGeometry x="180" y="120" width="450" height="60" as="geometry" />
        </mxCell>
        <mxCell id="pEkOY42yFZqLWtjxREkR-2" value="detectron2 modeling poolers.py 221行&lt;br&gt;box_features = self.box_pooler(features, [x.proposal_boxes for x in proposals])" style="rounded=0;whiteSpace=wrap;html=1;" vertex="1" parent="1">
          <mxGeometry x="180" y="220" width="450" height="60" as="geometry" />
        </mxCell>
      </root>
    </mxGraphModel>
  </diagram>
</mxfile>
